{
    "asset" : {
        "generator" : "Khronos glTF Blender I/O v1.5.17",
        "version" : "2.0"
    },
    "scene" : 0,
    "scenes" : [
        {
            "name" : "Scene",
            "nodes" : [
                0,
                1,
                2,
                3,
                4,
                5,
                6,
                7,
                8
            ]
        }
    ],
    "nodes" : [
        {
            "name" : "Light",
            "rotation" : [
                0.16907575726509094,
                0.7558803558349609,
                -0.27217137813568115,
                0.570947527885437
            ],
            "translation" : [
                4.076245307922363,
                5.903861999511719,
                -1.0054539442062378
            ]
        },
        {
            "name" : "Camera",
            "rotation" : [
                0.483536034822464,
                0.33687159419059753,
                -0.20870360732078552,
                0.7804827094078064
            ],
            "translation" : [
                7.358891487121582,
                4.958309173583984,
                6.925790786743164
            ]
        },
        {
            "mesh" : 0,
            "name" : "Cylinder",
            "scale" : [
                0.8226327300071716,
                0.8226327300071716,
                0.8226327300071716
            ]
        },
        {
            "mesh" : 1,
            "name" : "Cone",
            "rotation" : [
                1,
                0,
                0,
                -4.371138828673793e-08
            ],
            "translation" : [
                0,
                0.09999998658895493,
                0
            ]
        },
        {
            "mesh" : 2,
            "name" : "Torus",
            "scale" : [
                0.6778867244720459,
                0.6778867244720459,
                0.6778867244720459
            ],
            "translation" : [
                0,
                0.09239774197340012,
                0
            ]
        },
        {
            "mesh" : 3,
            "name" : "Sphere",
            "translation" : [
                0,
                0.20157404243946075,
                0
            ]
        },
        {
            "mesh" : 4,
            "name" : "Cube",
            "scale" : [
                1,
                1.775741457939148,
                1
            ],
            "translation" : [
                0,
                0,
                -0.03200000151991844
            ]
        },
        {
            "mesh" : 5,
            "name" : "Cube.001",
            "rotation" : [
                -0.13052619993686676,
                0,
                0,
                0.9914448857307434
            ],
            "scale" : [
                1,
                1.745144009590149,
                1.0709166526794434
            ],
            "translation" : [
                0,
                0,
                -0.03700000047683716
            ]
        },
        {
            "mesh" : 6,
            "name" : "Plane",
            "scale" : [
                -0.9415120482444763,
                -0.9415120482444763,
                -0.9415120482444763
            ],
            "translation" : [
                0,
                0.14999999105930328,
                0
            ]
        }
    ],
    "materials" : [
        {
            "doubleSided" : true,
            "name" : "Material.001",
            "pbrMetallicRoughness" : {
                "baseColorFactor" : [
                    0,
                    0,
                    0,
                    1
                ],
                "metallicFactor" : 0,
                "roughnessFactor" : 0.5
            }
        },
        {
            "doubleSided" : true,
            "name" : "Material.004",
            "pbrMetallicRoughness" : {
                "baseColorFactor" : [
                    0.07658116519451141,
                    0.0374324694275856,
                    0.0028456663712859154,
                    1
                ],
                "metallicFactor" : 0,
                "roughnessFactor" : 0.5
            }
        },
        {
            "doubleSided" : true,
            "name" : "Material.002",
            "pbrMetallicRoughness" : {
                "baseColorFactor" : [
                    0.28342920541763306,
                    0.28342920541763306,
                    0.28342920541763306,
                    1
                ],
                "metallicFactor" : 0,
                "roughnessFactor" : 0.5
            }
        },
        {
            "doubleSided" : true,
            "name" : "Material.003",
            "pbrMetallicRoughness" : {
                "baseColorFactor" : [
                    0.42002737522125244,
                    0.003147600684314966,
                    0.004923153202980757,
                    1
                ],
                "metallicFactor" : 0,
                "roughnessFactor" : 0.5
            }
        }
    ],
    "meshes" : [
        {
            "name" : "Cylinder",
            "primitives" : [
                {
                    "attributes" : {
                        "POSITION" : 0,
                        "NORMAL" : 1,
                        "TEXCOORD_0" : 2
                    },
                    "indices" : 3,
                    "material" : 0
                }
            ]
        },
        {
            "name" : "Cone",
            "primitives" : [
                {
                    "attributes" : {
                        "POSITION" : 4,
                        "NORMAL" : 5,
                        "TEXCOORD_0" : 6
                    },
                    "indices" : 7,
                    "material" : 0
                }
            ]
        },
        {
            "name" : "Torus",
            "primitives" : [
                {
                    "attributes" : {
                        "POSITION" : 8,
                        "NORMAL" : 9,
                        "TEXCOORD_0" : 10
                    },
                    "indices" : 11,
                    "material" : 1
                }
            ]
        },
        {
            "name" : "Sphere.003",
            "primitives" : [
                {
                    "attributes" : {
                        "POSITION" : 12,
                        "NORMAL" : 13,
                        "TEXCOORD_0" : 14
                    },
                    "indices" : 15
                }
            ]
        },
        {
            "name" : "Cube.001",
            "primitives" : [
                {
                    "attributes" : {
                        "POSITION" : 16,
                        "NORMAL" : 17,
                        "TEXCOORD_0" : 18
                    },
                    "indices" : 19,
                    "material" : 2
                }
            ]
        },
        {
            "name" : "Cube.002",
            "primitives" : [
                {
                    "attributes" : {
                        "POSITION" : 20,
                        "NORMAL" : 21,
                        "TEXCOORD_0" : 22
                    },
                    "indices" : 19,
                    "material" : 3
                }
            ]
        },
        {
            "name" : "Plane.001",
            "primitives" : [
                {
                    "attributes" : {
                        "POSITION" : 23,
                        "NORMAL" : 24,
                        "TEXCOORD_0" : 25
                    },
                    "indices" : 26,
                    "material" : 1
                }
            ]
        }
    ],
    "accessors" : [
        {
            "bufferView" : 0,
            "componentType" : 5126,
            "count" : 322,
            "max" : [
                0.05000000074505806,
                0.15000000596046448,
                0.05000000074505806
            ],
            "min" : [
                -0.05000000074505806,
                -0.15000000596046448,
                -0.05000000074505806
            ],
            "type" : "VEC3"
        },
        {
            "bufferView" : 1,
            "componentType" : 5126,
            "count" : 322,
            "type" : "VEC3"
        },
        {
            "bufferView" : 2,
            "componentType" : 5126,
            "count" : 322,
            "type" : "VEC2"
        },
        {
            "bufferView" : 3,
            "componentType" : 5123,
            "count" : 948,
            "type" : "SCALAR"
        },
        {
            "bufferView" : 4,
            "componentType" : 5126,
            "count" : 65,
            "max" : [
                0.07999999821186066,
                0.07500000298023224,
                0.07999999821186066
            ],
            "min" : [
                -0.07999999821186066,
                -0.07500000298023224,
                -0.07999999821186066
            ],
            "type" : "VEC3"
        },
        {
            "bufferView" : 5,
            "componentType" : 5126,
            "count" : 65,
            "type" : "VEC3"
        },
        {
            "bufferView" : 6,
            "componentType" : 5126,
            "count" : 65,
            "type" : "VEC2"
        },
        {
            "bufferView" : 7,
            "componentType" : 5123,
            "count" : 186,
            "type" : "SCALAR"
        },
        {
            "bufferView" : 8,
            "componentType" : 5126,
            "count" : 266,
            "max" : [
                0.07000000029802322,
                0.01985417678952217,
                0.0689365491271019
            ],
            "min" : [
                -0.07000000029802322,
                -0.01985417678952217,
                -0.0689365491271019
            ],
            "type" : "VEC3"
        },
        {
            "bufferView" : 9,
            "componentType" : 5126,
            "count" : 266,
            "type" : "VEC3"
        },
        {
            "bufferView" : 10,
            "componentType" : 5126,
            "count" : 266,
            "type" : "VEC2"
        },
        {
            "bufferView" : 11,
            "componentType" : 5123,
            "count" : 1404,
            "type" : "SCALAR"
        },
        {
            "bufferView" : 12,
            "componentType" : 5126,
            "count" : 559,
            "max" : [
                0.07100000977516174,
                0.07099999487400055,
                0.07100002467632294
            ],
            "min" : [
                -0.07099997997283936,
                -0.07099999487400055,
                -0.07099999487400055
            ],
            "type" : "VEC3"
        },
        {
            "bufferView" : 13,
            "componentType" : 5126,
            "count" : 559,
            "type" : "VEC3"
        },
        {
            "bufferView" : 14,
            "componentType" : 5126,
            "count" : 559,
            "type" : "VEC2"
        },
        {
            "bufferView" : 15,
            "componentType" : 5123,
            "count" : 2880,
            "type" : "SCALAR"
        },
        {
            "bufferView" : 16,
            "componentType" : 5126,
            "count" : 24,
            "max" : [
                0.009999999776482582,
                0.009999999776482582,
                0.009999999776482582
            ],
            "min" : [
                -0.009999999776482582,
                -0.009999999776482582,
                -0.009999999776482582
            ],
            "type" : "VEC3"
        },
        {
            "bufferView" : 17,
            "componentType" : 5126,
            "count" : 24,
            "type" : "VEC3"
        },
        {
            "bufferView" : 18,
            "componentType" : 5126,
            "count" : 24,
            "type" : "VEC2"
        },
        {
            "bufferView" : 19,
            "componentType" : 5123,
            "count" : 36,
            "type" : "SCALAR"
        },
        {
            "bufferView" : 20,
            "componentType" : 5126,
            "count" : 24,
            "max" : [
                0.00800000037997961,
                0.007999999448657036,
                0.007999999448657036
            ],
            "min" : [
                -0.00800000037997961,
                -0.007999999448657036,
                -0.007999999448657036
            ],
            "type" : "VEC3"
        },
        {
            "bufferView" : 21,
            "componentType" : 5126,
            "count" : 24,
            "type" : "VEC3"
        },
        {
            "bufferView" : 22,
            "componentType" : 5126,
            "count" : 24,
            "type" : "VEC2"
        },
        {
            "bufferView" : 23,
            "componentType" : 5126,
            "count" : 4,
            "max" : [
                0.05000000074505806,
                0,
                0.05000000074505806
            ],
            "min" : [
                -0.05000000074505806,
                0,
                -0.05000000074505806
            ],
            "type" : "VEC3"
        },
        {
            "bufferView" : 24,
            "componentType" : 5126,
            "count" : 4,
            "type" : "VEC3"
        },
        {
            "bufferView" : 25,
            "componentType" : 5126,
            "count" : 4,
            "type" : "VEC2"
        },
        {
            "bufferView" : 26,
            "componentType" : 5123,
            "count" : 6,
            "type" : "SCALAR"
        }
    ],
    "bufferViews" : [
        {
            "buffer" : 0,
            "byteLength" : 3864,
            "byteOffset" : 0
        },
        {
            "buffer" : 0,
            "byteLength" : 3864,
            "byteOffset" : 3864
        },
        {
            "buffer" : 0,
            "byteLength" : 2576,
            "byteOffset" : 7728
        },
        {
            "buffer" : 0,
            "byteLength" : 1896,
            "byteOffset" : 10304
        },
        {
            "buffer" : 0,
            "byteLength" : 780,
            "byteOffset" : 12200
        },
        {
            "buffer" : 0,
            "byteLength" : 780,
            "byteOffset" : 12980
        },
        {
            "buffer" : 0,
            "byteLength" : 520,
            "byteOffset" : 13760
        },
        {
            "buffer" : 0,
            "byteLength" : 372,
            "byteOffset" : 14280
        },
        {
            "buffer" : 0,
            "byteLength" : 3192,
            "byteOffset" : 14652
        },
        {
            "buffer" : 0,
            "byteLength" : 3192,
            "byteOffset" : 17844
        },
        {
            "buffer" : 0,
            "byteLength" : 2128,
            "byteOffset" : 21036
        },
        {
            "buffer" : 0,
            "byteLength" : 2808,
            "byteOffset" : 23164
        },
        {
            "buffer" : 0,
            "byteLength" : 6708,
            "byteOffset" : 25972
        },
        {
            "buffer" : 0,
            "byteLength" : 6708,
            "byteOffset" : 32680
        },
        {
            "buffer" : 0,
            "byteLength" : 4472,
            "byteOffset" : 39388
        },
        {
            "buffer" : 0,
            "byteLength" : 5760,
            "byteOffset" : 43860
        },
        {
            "buffer" : 0,
            "byteLength" : 288,
            "byteOffset" : 49620
        },
        {
            "buffer" : 0,
            "byteLength" : 288,
            "byteOffset" : 49908
        },
        {
            "buffer" : 0,
            "byteLength" : 192,
            "byteOffset" : 50196
        },
        {
            "buffer" : 0,
            "byteLength" : 72,
            "byteOffset" : 50388
        },
        {
            "buffer" : 0,
            "byteLength" : 288,
            "byteOffset" : 50460
        },
        {
            "buffer" : 0,
            "byteLength" : 288,
            "byteOffset" : 50748
        },
        {
            "buffer" : 0,
            "byteLength" : 192,
            "byteOffset" : 51036
        },
        {
            "buffer" : 0,
            "byteLength" : 48,
            "byteOffset" : 51228
        },
        {
            "buffer" : 0,
            "byteLength" : 48,
            "byteOffset" : 51276
        },
        {
            "buffer" : 0,
            "byteLength" : 32,
            "byteOffset" : 51324
        },
        {
            "buffer" : 0,
            "byteLength" : 12,
            "byteOffset" : 51356
        }
    ],
    "buffers" : [
        {
            "byteLength" : 51368,
            "uri" : "data:application/octet-stream;base64,"
        }
    ]
}
