{
    "asset" : {
        "generator" : "Khronos glTF Blender I/O v1.2.75",
        "version" : "2.0"
    },
    "scene" : 0,
    "scenes" : [
        {
            "name" : "Scene",
            "nodes" : [
                0,
                1,
                2,
                3,
                4
            ]
        }
    ],
    "nodes" : [
        {
            "mesh" : 0,
            "name" : "Circle",
            "scale" : [
                0.576241672039032,
                0.576241672039032,
                0.576241672039032
            ]
        },
        {
            "mesh" : 1,
            "name" : "Cube",
            "scale" : [
                0.21639904379844666,
                0.3434132933616638,
                0.35680729150772095
            ],
            "translation" : [
                0,
                0.4769090414047241,
                0.46221911907196045
            ]
        },
        {
            "mesh" : 2,
            "name" : "Cylinder",
            "rotation" : [
                0.7071067690849304,
                0,
                0,
                0.7071067690849304
            ],
            "scale" : [
                0.0890662744641304,
                0.3837662637233734,
                0.0890662744641304
            ],
            "translation" : [
                0,
                0.448933482170105,
                0.8532928228378296
            ]
        },
        {
            "name" : "Sun",
            "rotation" : [
                0.24666477739810944,
                -0.054326049983501434,
                -0.5015061497688293,
                0.8274640440940857
            ],
            "translation" : [
                4.591479301452637,
                2.710503339767456,
                2.836026906967163
            ]
        },
        {
            "name" : "Camera",
            "rotation" : [
                0.4672718644142151,
                0.4411802291870117,
                -0.27543145418167114,
                0.7149507403373718
            ],
            "translation" : [
                2.9373180866241455,
                1.8419514894485474,
                1.8551887273788452
            ]
        }
    ],
    "meshes" : [
        {
            "name" : "Circle",
            "primitives" : [
                {
                    "attributes" : {
                        "POSITION" : 0,
                        "NORMAL" : 1,
                        "TEXCOORD_0" : 2
                    },
                    "indices" : 3
                }
            ]
        },
        {
            "name" : "Cube.001",
            "primitives" : [
                {
                    "attributes" : {
                        "POSITION" : 4,
                        "NORMAL" : 5,
                        "TEXCOORD_0" : 6
                    },
                    "indices" : 7
                }
            ]
        },
        {
            "name" : "Cylinder",
            "primitives" : [
                {
                    "attributes" : {
                        "POSITION" : 8,
                        "NORMAL" : 9,
                        "TEXCOORD_0" : 10
                    },
                    "indices" : 11
                }
            ]
        }
    ],
    "accessors" : [
        {
            "bufferView" : 0,
            "componentType" : 5126,
            "count" : 544,
            "max" : [
                1,
                1.3950748443603516,
                1
            ],
            "min" : [
                -1,
                0,
                -1
            ],
            "type" : "VEC3"
        },
        {
            "bufferView" : 1,
            "componentType" : 5126,
            "count" : 544,
            "type" : "VEC3"
        },
        {
            "bufferView" : 2,
            "componentType" : 5126,
            "count" : 544,
            "type" : "VEC2"
        },
        {
            "bufferView" : 3,
            "componentType" : 5123,
            "count" : 3240,
            "type" : "SCALAR"
        },
        {
            "bufferView" : 4,
            "componentType" : 5126,
            "count" : 420,
            "max" : [
                0.7767106890678406,
                0.3506165146827698,
                1
            ],
            "min" : [
                -0.001300118863582611,
                -0.5,
                -1
            ],
            "type" : "VEC3"
        },
        {
            "bufferView" : 5,
            "componentType" : 5126,
            "count" : 420,
            "type" : "VEC3"
        },
        {
            "bufferView" : 6,
            "componentType" : 5126,
            "count" : 420,
            "type" : "VEC2"
        },
        {
            "bufferView" : 7,
            "componentType" : 5123,
            "count" : 918,
            "type" : "SCALAR"
        },
        {
            "bufferView" : 8,
            "componentType" : 5126,
            "count" : 1354,
            "max" : [
                0.9510565400123596,
                0.9828345775604248,
                1
            ],
            "min" : [
                -0.9510564804077148,
                -1,
                -1
            ],
            "type" : "VEC3"
        },
        {
            "bufferView" : 9,
            "componentType" : 5126,
            "count" : 1354,
            "type" : "VEC3"
        },
        {
            "bufferView" : 10,
            "componentType" : 5126,
            "count" : 1354,
            "type" : "VEC2"
        },
        {
            "bufferView" : 11,
            "componentType" : 5123,
            "count" : 2088,
            "type" : "SCALAR"
        }
    ],
    "bufferViews" : [
        {
            "buffer" : 0,
            "byteLength" : 6528,
            "byteOffset" : 0
        },
        {
            "buffer" : 0,
            "byteLength" : 6528,
            "byteOffset" : 6528
        },
        {
            "buffer" : 0,
            "byteLength" : 4352,
            "byteOffset" : 13056
        },
        {
            "buffer" : 0,
            "byteLength" : 6480,
            "byteOffset" : 17408
        },
        {
            "buffer" : 0,
            "byteLength" : 5040,
            "byteOffset" : 23888
        },
        {
            "buffer" : 0,
            "byteLength" : 5040,
            "byteOffset" : 28928
        },
        {
            "buffer" : 0,
            "byteLength" : 3360,
            "byteOffset" : 33968
        },
        {
            "buffer" : 0,
            "byteLength" : 1836,
            "byteOffset" : 37328
        },
        {
            "buffer" : 0,
            "byteLength" : 16248,
            "byteOffset" : 39164
        },
        {
            "buffer" : 0,
            "byteLength" : 16248,
            "byteOffset" : 55412
        },
        {
            "buffer" : 0,
            "byteLength" : 10832,
            "byteOffset" : 71660
        },
        {
            "buffer" : 0,
            "byteLength" : 4176,
            "byteOffset" : 82492
        }
    ],
    "buffers" : [
        {
            "byteLength" : 86668,
            "uri" : "data:application/octet-stream;base64,"
        }
    ]
}
